<svg width="11" height="12" viewBox="0 0 11 12" fill="none" xmlns="http://www.w3.org/2000/svg">
<path d="M1 5.25C0.585786 5.25 0.25 5.58579 0.25 6C0.25 6.41421 0.585786 6.75 1 6.75L1 5.25ZM10.0303 6.53033C10.3232 6.23744 10.3232 5.76256 10.0303 5.46967L5.25736 0.6967C4.96447 0.403806 4.48959 0.403806 4.1967 0.696699C3.90381 0.989593 3.90381 1.46447 4.1967 1.75736L8.43934 6L4.1967 10.2426C3.90381 10.5355 3.90381 11.0104 4.1967 11.3033C4.48959 11.5962 4.96447 11.5962 5.25736 11.3033L10.0303 6.53033ZM1 6.75L9.5 6.75L9.5 5.25L1 5.25L1 6.75Z" fill="white"/>
</svg>
